Coordinates
version=1
nRows=11
nColumns=40
inDegrees=yes

Units are S.I. units (second, meters, Newtons, ...)
Angles are in degrees.

endheader
time	pelvis_tilt	pelvis_list	pelvis_rotation	pelvis_tx	pelvis_ty	pelvis_tz	hip_flexion_r	hip_adduction_r	hip_rotation_r	knee_angle_r	knee_angle_r_beta	ankle_angle_r	subtalar_angle_r	mtp_angle_r	hip_flexion_l	hip_adduction_l	hip_rotation_l	knee_angle_l	knee_angle_l_beta	ankle_angle_l	subtalar_angle_l	mtp_angle_l	lumbar_extension	lumbar_bending	lumbar_rotation	arm_flex_r	arm_add_r	arm_rot_r	elbow_flex_r	pro_sup_r	wrist_flex_r	wrist_dev_r	arm_flex_l	arm_add_l	arm_rot_l	elbow_flex_l	pro_sup_l	wrist_flex_l	wrist_dev_l
     27.32750000	     -5.93675299	     -7.13580645	      5.17771710	      1.03744110	      0.92858607	      0.49483585	     11.71141770	      4.70371075	    -19.61902035	     13.53193724	     13.53193724	      9.80865653	      1.85590689	     -2.93352218	     40.19947265	    -13.28001466	      4.46636869	     64.64719790	     64.64719790	     10.17880827	    -18.78312601	     13.98879127	    -11.92070568	      5.21799160	      4.59435310	     17.01958438	    -16.13882678	     -1.90935948	     52.90536310	     45.50793162	      0.00000000	      0.00000000	      5.25531285	    -10.06655840	      1.97945374	     45.94710773	     47.12649326	      0.00000000	      0.00000000
     27.33900000	     -5.97535865	     -7.11777453	      5.43919494	      1.03524774	      0.92825285	      0.49435800	     11.17694370	      4.78826476	    -19.44241593	     13.19762457	     13.19762457	     10.06073959	      1.45524804	     -3.24692498	     41.38723416	    -12.83863096	      4.83309144	     62.82742433	     62.82742433	     10.18191291	    -18.77020143	     14.53306310	    -12.01258164	      5.10816826	      5.23116898	     18.63134929	    -17.13185205	     -1.41554734	     55.86432712	     45.39152318	      0.00000000	      0.00000000	      5.42697608	     -8.98455962	      1.55714463	     40.25443257	     47.08030352	      0.00000000	      0.00000000
     27.35050000	     -6.01054322	     -7.09514374	      5.71080762	      1.03318991	      0.92780330	      0.49366677	     10.61789171	      4.84189616	    -19.33641735	     12.85959661	     12.85959661	     10.34203582	      1.19918238	     -3.52292621	     42.38838548	    -12.33745226	      5.23119811	     60.72122787	     60.72122787	     10.05399874	    -18.71793908	     14.74156398	    -12.15811391	      5.02237133	      5.27067656	     20.66925918	    -17.52588342	     -1.55242844	     58.59116674	     45.31648418	      0.00000000	      0.00000000	      4.39735577	     -8.46827409	      1.41643385	     36.88946924	     47.01320319	      0.00000000	      0.00000000
     27.36200000	     -6.05144847	     -7.08010174	      5.97401712	      1.03121638	      0.92729454	      0.49283786	     10.05010119	      4.89162300	    -19.29000248	     12.52879179	     12.52879179	     10.72505267	      1.04442865	     -3.65098079	     43.20124724	    -11.79229738	      5.66447408	     58.33094256	     58.33094256	      9.92628588	    -18.64433237	     14.94156561	    -12.24731174	      4.92197258	      4.93258231	     23.24498204	    -17.47134373	     -1.79071164	     60.65178514	     45.26845237	      0.00000000	      0.00000000	      2.85287592	     -8.27804794	      1.56436147	     35.08880429	     46.95203520	      0.00000000	      0.00000000
     27.37350000	     -6.11371584	     -7.11382033	      6.19849110	      1.02941072	      0.92666991	      0.49188023	      9.48046665	      5.00212874	    -19.17632525	     12.13412973	     12.13412973	     10.93276227	      0.80923883	     -4.13015992	     43.83276053	    -11.29701053	      6.11074556	     55.68432012	     55.68432012	      9.60149138	    -18.45608194	     14.48791991	    -12.29447317	      4.90676751	      5.29261570	     24.92549821	    -18.31348885	     -1.41713618	     64.05517194	     45.15721653	      0.00000000	      0.00000000	      2.51190439	     -7.61186719	      1.56889286	     30.76970881	     46.88192279	      0.00000000	      0.00000000
     27.38500000	     -6.15668254	     -7.09231717	      6.40425509	      1.02777146	      0.92607047	      0.49075230	      8.89822362	      5.02208722	    -19.11727250	     11.82153766	     11.82153766	     11.30300703	      0.75132676	     -4.27325072	     44.23069664	    -10.70232863	      6.60674375	     52.85220460	     52.85220460	      9.52241721	    -18.14422025	     14.62492326	    -12.34999995	      4.81130152	      5.08886368	     27.38688483	    -18.24517455	     -1.73289207	     66.08403606	     45.11383271	      0.00000000	      0.00000000	      0.92574353	     -7.41359696	      1.67285900	     29.37549057	     46.83034086	      0.00000000	      0.00000000
     27.39650000	     -6.20176652	     -7.15848330	      6.62619343	      1.02640295	      0.92535878	      0.48946304	      8.27524979	      5.13769753	    -19.10546729	     11.43980376	     11.43980376	     11.62003481	      0.74088207	     -4.48509826	     44.45498949	    -10.18308196	      7.18331508	     49.84710218	     49.84710218	      9.46619123	    -17.56485878	     14.39397926	    -12.36067056	      4.85892397	      4.79412347	     29.61885181	    -18.13928691	     -1.77878547	     68.76081612	     45.03978931	      0.00000000	      0.00000000	     -0.54664393	     -7.14881769	      1.82541141	     27.45738653	     46.77044771	      0.00000000	      0.00000000
     27.40800000	     -6.22548350	     -7.18566325	      6.78272073	      1.02524370	      0.92469598	      0.48810936	      7.61551077	      5.20906594	    -19.07199635	     11.07364026	     11.07364026	     11.93769166	      0.78103187	     -4.70627892	     44.42154237	     -9.73639653	      7.59816752	     46.66692986	     46.66692986	      9.45151343	    -16.67342657	     14.12467031	    -12.38199091	      4.83206460	      4.73869465	     31.75022965	    -18.21967407	     -1.79645610	     71.38442828	     44.96686944	      0.00000000	      0.00000000	     -1.89569585	     -6.87206140	      1.97539719	     25.78049766	     46.71478852	      0.00000000	      0.00000000
     27.41950000	     -6.24594603	     -7.25957053	      6.90920944	      1.02442738	      0.92394639	      0.48666117	      6.92593403	      5.32699319	    -19.04799853	     10.68808090	     10.68808090	     12.22893686	      0.90258601	     -4.92841053	     44.19686246	     -9.39520924	      7.96745712	     43.41065338	     43.41065338	      9.59109955	    -15.47374042	     13.76475235	    -12.33838142	      4.88061738	      4.71947636	     33.73987431	    -18.28773614	     -1.77889227	     74.18440144	     44.88761452	      0.00000000	      0.00000000	     -3.24780890	     -6.61288365	      2.13370994	     24.24071704	     46.65731843	      0.00000000	      0.00000000
     27.43100000	     -6.28803185	     -7.42422591	      7.01809014	      1.02389311	      0.92303023	      0.48507653	      6.21014817	      5.53737452	    -19.09671086	     10.21906888	     10.21906888	     12.42460766	      1.14851955	     -5.39848794	     43.82173724	     -9.20543886	      8.24845517	     40.05409710	     40.05409710	      9.26945248	    -14.21462022	     12.25257598	    -12.29716863	      5.02447623	      5.52956860	     34.68156352	    -19.46347479	     -1.76221776	     78.88256878	     44.76577054	      0.00000000	      0.00000000	     -3.92264396	     -6.24290660	      2.51671796	     22.14495698	     46.54330686	      0.00000000	      0.00000000
     27.44250000	     -6.27169731	     -7.46930948	      7.07213867	      1.02370009	      0.92220488	      0.48338506	      5.45887383	      5.61035824	    -19.02680111	      9.89746965	      9.89746965	     12.79418280	      1.28227845	     -5.51023883	     43.19507448	     -8.99552043	      8.28335965	     36.80092678	     36.80092678	      9.55774888	    -12.74865430	     12.42843025	    -12.21560710	      5.03146847	      5.43167446	     36.80869209	    -19.11984125	     -2.04985062	     80.93695978	     44.72396999	      0.00000000	      0.00000000	     -5.51406490	     -6.08369842	      2.63279209	     21.36094685	     46.48058132	      0.00000000	      0.00000000
